<svg xmlns="http://www.w3.org/2000/svg" xmlns:xlink="http://www.w3.org/1999/xlink" version="1.1" width="250" height="250" viewBox="0 0 250 250" xml:space="preserve">
<desc>Created with Fabric.js 3.6.3</desc>
<defs>
</defs>
<g transform="matrix(0.6238320764634576 0 0 0.6239297945205478 125 94.39212328767124)" id="uid682w1hc9o" style="opacity: 1; ">
	<g transform="matrix(1 0 0 1 0 0)" id="uidy51v5symq">
<g style="">
		<g transform="matrix(1 0 0 1 0.00125537575823387 193.55000000000004)" id="uid78umqg5rk">
<g style="">
		<g transform="matrix(1 0 0 1 0 0)" id="uidcgr2gzj1e">
<g style="">
		<g transform="matrix(1 0 0 1 -0.00282611066438676 -5.684e-14)" id="uidnyisfnnfp">
<path style="stroke: none; stroke-width: 0; stroke-dasharray:none; stroke-linecap: butt; stroke-dashoffset: 0; stroke-linejoin: miter; stroke-miterlimit: 4; fill: rgb(44,88,113); fill-rule: nonzero; opacity: 1;" transform=" translate(-199.7984292650939, -393.59999999999997)" d="M 159.6 398.7 H 240 c 2.8 0 5.1 -2.3 5.1 -5.1 c 0 -2.8 -2.3 -5.1 -5.1 -5.1 h -80.4 c -2.8 0 -5.1 2.3 -5.1 5.1 C 154.4 396.4 156.7 398.7 159.6 398.7 L 159.6 398.7 z" stroke-linecap="round"/>
</g>
		<g transform="matrix(1 0 0 1 0 0)" id="uidg7xs3h338">
<path style="stroke: none; stroke-width: 0; stroke-dasharray:none; stroke-linecap: butt; stroke-dashoffset: 0; stroke-linejoin: miter; stroke-miterlimit: 4; fill: rgb(44,88,113); fill-rule: nonzero; opacity: 1;" transform=" translate(-199.80125537575827, -393.6)" d="M 240 400 h -80.4 c -3.6 0 -6.4 -2.9 -6.4 -6.4 c 0 -3.5 2.9 -6.4 6.4 -6.4 H 240 c 3.5 0 6.4 2.9 6.4 6.4 C 246.5 397.1 243.6 400 240 400 L 240 400 z M 159.6 389.8 c -2.1 0 -3.8 1.7 -3.8 3.8 c 0 2.1 1.7 3.8 3.8 3.8 H 240 c 2.1 0 3.8 -1.7 3.8 -3.8 c 0 -2.1 -1.7 -3.8 -3.8 -3.8 H 159.6 L 159.6 389.8 z" stroke-linecap="round"/>
</g>
</g>
</g>
</g>
</g>
		<g transform="matrix(1 0 0 1 -2.842e-14 43.650000000000006)" id="uidua5e4501r">
<g style="">
		<g transform="matrix(1 0 0 1 0 -29.44999999999999)" id="uidbnt3t6u3k">
<path style="stroke: none; stroke-width: 0; stroke-dasharray:none; stroke-linecap: butt; stroke-dashoffset: 0; stroke-linejoin: miter; stroke-miterlimit: 4; fill: rgb(249,155,28); fill-rule: nonzero; opacity: 1;" transform=" translate(-199.8, -214.25)" d="M 99.6 193.1 C 99.6 137.8 144.5 93 199.8 93 C 255.1 93 300 137.8 300 193.1 c 0 3.3 -2.4 49.6 -40.1 98.2 c -11.1 14.7 -9.2 44.2 -9.1 44.2 c -15.5 0 -28.3 0 -43.8 0 c -4.8 0 -9.5 0 -14.2 0 c -15.5 0 -28.5 0 -44 0 c 0.1 0 2.1 -29.5 -8.9 -44.2 C 102 242.6 99.6 196.4 99.6 193.1 z" stroke-linecap="round"/>
</g>
		<g transform="matrix(1 0 0 1 -50.0500833570797 -29.5)" id="uidxx5waqxnx">
<path style="stroke: none; stroke-width: 0; stroke-dasharray:none; stroke-linecap: butt; stroke-dashoffset: 0; stroke-linejoin: miter; stroke-miterlimit: 4; fill: rgb(254,192,15); fill-rule: nonzero; opacity: 1;" transform=" translate(-149.7499166429203, -214.2)" d="M 199.8 335.4 c -15.5 0 -35.6 0 -51.1 0 c 0.1 0 2.1 -29.5 -8.9 -44.2 c -37.8 -48.6 -40.1 -94.9 -40.1 -98.2 C 99.6 137.8 144.5 93 199.8 93" stroke-linecap="round"/>
</g>
		<g transform="matrix(1 0 0 1 39.44999999999999 -90.04999999999998)" id="uidwuokqq8br">
<g style="">
		<g transform="matrix(1 0 0 1 0 0)" id="uiduosn6vtx">
<path style="stroke: none; stroke-width: 0; stroke-dasharray:none; stroke-linecap: butt; stroke-dashoffset: 0; stroke-linejoin: miter; stroke-miterlimit: 4; fill: rgb(254,192,15); fill-rule: nonzero; opacity: 1;" transform=" translate(-239.25, -153.65)" d="M 278.7 193.1 h -8.8 c 0 -38.6 -31.5 -70.1 -70.1 -70.1 v -8.8 C 243.3 114.2 278.7 149.6 278.7 193.1 L 278.7 193.1 z" stroke-linecap="round"/>
</g>
</g>
</g>
		<g transform="matrix(1 0 0 1 -0.10000000000002274 47.099999999999966)" id="uidyhqam1opu">
<path style="stroke: none; stroke-width: 0; stroke-dasharray:none; stroke-linecap: butt; stroke-dashoffset: 0; stroke-linejoin: miter; stroke-miterlimit: 4; fill: rgb(44,88,113); fill-rule: nonzero; opacity: 1;" transform=" translate(-199.7, -290.79999999999995)" d="M 230.1 238.3 l -0.4 2.7 c -1 -1.2 -2.3 -2.1 -4.1 -2.1 c -3.6 0 -5.2 3.5 -6.3 6.1 c -0.5 1.1 -1.5 3.3 -2 3.3 c -0.6 0 -1.5 -2.2 -2 -3.3 c -1.1 -2.6 -2.7 -6.1 -6.3 -6.1 c -0.9 0 -1.6 0.5 -2.1 1.2 c 0 0.1 -0.1 0.1 -0.1 0.2 c -1.6 3.7 -4.7 7.9 -6.2 7.9 c -0.4 0 -1.3 -2.1 -1.7 -3 c -1.1 -2.7 -2.6 -6.4 -6.7 -6.4 c -2.6 0 -4.1 2.6 -5.9 5.6 c -0.7 1.1 -1.7 2.9 -2.4 3.6 c -0.7 -0.7 -1.8 -2.5 -2.4 -3.6 c -1.8 -3 -3.4 -5.6 -5.9 -5.6 c -2.2 0 -4.1 1.2 -5.7 2.8 l -0.6 -3.3 l -8.7 1.4 l 17.1 103.6 l 8.7 -1.4 l -15.5 -93.7 c 1.3 -2.4 3 -4.3 4.3 -4.6 c 0.6 0.6 1.6 2.2 2.2 3.3 c 1.9 3.1 3.6 6 6.4 6 c 2.8 0 4.6 -2.9 6.4 -6 c 0.6 -1 1.6 -2.7 2.2 -3.3 c 0.7 0.3 1.3 1.6 2 3.4 c 1 2.5 2.4 5.9 6 5.9 c 3.9 0 7.4 -4.8 9.3 -8.3 c 0.4 0.7 0.8 1.6 1.1 2.2 c 1.1 2.6 2.7 6.1 6.3 6.1 c 3.6 0 5.1 -3.5 6.3 -6.1 c 0.5 -1.1 1.5 -3.3 2 -3.3 c 0.6 0 1.5 2.2 2 3.3 c 0.3 0.6 0.5 1.2 0.8 1.8 L 213 341.8 l 8.7 1.4 l 17.1 -103.6 L 230.1 238.3 z" stroke-linecap="round"/>
</g>
		<g transform="matrix(1 0 0 1 0.05000000000001137 121.25)" id="uid6nkph1m8q">
<path style="stroke: none; stroke-width: 0; stroke-dasharray:none; stroke-linecap: butt; stroke-dashoffset: 0; stroke-linejoin: miter; stroke-miterlimit: 4; fill: rgb(16,55,84); fill-rule: nonzero; opacity: 1;" transform=" translate(-199.85000000000002, -364.95)" d="M 250.8 335.5 v 52.4 c 0 3.6 -2.9 6.5 -6.5 6.5 h -88.9 c -3.6 0 -6.5 -2.9 -6.5 -6.5 v -52.4 H 250.8 z" stroke-linecap="round"/>
</g>
		<g transform="matrix(1 0 0 1 0.05000000000001137 113.99999999999994)" id="uid56b7856nu">
<g style="">
		<g transform="matrix(1 0 0 1 0 -17.099999999999966)" id="uidsfj82pdtd">
<g style="">
		<g transform="matrix(1 0 0 1 -0.05000000000001137 -0.0999999999999659)" id="uidlkkj1570e">
<line style="stroke: none; stroke-width: 0; stroke-dasharray:none; stroke-linecap: butt; stroke-dashoffset: 0; stroke-linejoin: miter; stroke-miterlimit: 4; fill: rgb(44,88,113); fill-rule: nonzero; opacity: 1;" x1="53" y1="0" x2="-53" y2="0"/>
</g>
		<g transform="matrix(1 0 0 1 0 0)" id="uidqrnk6jf7v">
<path style="stroke: none; stroke-width: 0; stroke-dasharray:none; stroke-linecap: butt; stroke-dashoffset: 0; stroke-linejoin: miter; stroke-miterlimit: 4; fill: rgb(44,88,113); fill-rule: nonzero; opacity: 1;" transform=" translate(-199.85000000000002, -340.59999999999997)" d="M 252.8 345.7 H 146.8 c -2.8 0 -5.1 -2.3 -5.1 -5.1 c 0 -2.8 2.3 -5.1 5.1 -5.1 h 106.1 c 2.8 0 5.1 2.3 5.1 5.1 C 258 343.4 255.7 345.7 252.8 345.7 L 252.8 345.7 z" stroke-linecap="round"/>
</g>
</g>
</g>
		<g transform="matrix(1 0 0 1 0 5.684e-14)" id="uidthcwihksi">
<g style="">
		<g transform="matrix(1 0 0 1 -0.05000000000001137 -0.0999999999999659)" id="uid189fbjw5f">
<line style="stroke: none; stroke-width: 0; stroke-dasharray:none; stroke-linecap: butt; stroke-dashoffset: 0; stroke-linejoin: miter; stroke-miterlimit: 4; fill: rgb(44,88,113); fill-rule: nonzero; opacity: 1;" x1="53" y1="0" x2="-53" y2="0"/>
</g>
		<g transform="matrix(1 0 0 1 0 0)" id="uidle96rnjgz">
<path style="stroke: none; stroke-width: 0; stroke-dasharray:none; stroke-linecap: butt; stroke-dashoffset: 0; stroke-linejoin: miter; stroke-miterlimit: 4; fill: rgb(44,88,113); fill-rule: nonzero; opacity: 1;" transform=" translate(-199.85000000000002, -357.7)" d="M 252.8 362.8 H 146.8 c -2.8 0 -5.1 -2.3 -5.1 -5.1 c 0 -2.8 2.3 -5.1 5.1 -5.1 h 106.1 c 2.8 0 5.1 2.3 5.1 5.1 C 258 360.5 255.7 362.8 252.8 362.8 L 252.8 362.8 z" stroke-linecap="round"/>
</g>
</g>
</g>
		<g transform="matrix(1 0 0 1 0 17.100000000000023)" id="uido8zj3ub0f">
<g style="">
		<g transform="matrix(1 0 0 1 -0.05000000000001137 5.684e-14)" id="uidfz4iq8kjl">
<line style="stroke: none; stroke-width: 0; stroke-dasharray:none; stroke-linecap: butt; stroke-dashoffset: 0; stroke-linejoin: miter; stroke-miterlimit: 4; fill: rgb(44,88,113); fill-rule: nonzero; opacity: 1;" x1="53" y1="0" x2="-53" y2="0"/>
</g>
		<g transform="matrix(1 0 0 1 0 0)" id="uidgvvfzcavh">
<path style="stroke: none; stroke-width: 0; stroke-dasharray:none; stroke-linecap: butt; stroke-dashoffset: 0; stroke-linejoin: miter; stroke-miterlimit: 4; fill: rgb(44,88,113); fill-rule: nonzero; opacity: 1;" transform=" translate(-199.85000000000002, -374.79999999999995)" d="M 252.8 379.9 H 146.8 c -2.8 0 -5.1 -2.3 -5.1 -5.1 c 0 -2.8 2.3 -5.1 5.1 -5.1 h 106.1 c 2.8 0 5.1 2.3 5.1 5.1 C 258 377.6 255.7 379.9 252.8 379.9 L 252.8 379.9 z" stroke-linecap="round"/>
</g>
</g>
</g>
</g>
</g>
</g>
</g>
		<g transform="matrix(1 0 0 1 0 -15.099999999999966)" id="uid4p9e8sxh6">
<g style="">
		<g transform="matrix(1 0 0 1 -2.842e-14 -154.75000000000003)" id="uidr1bo3say8">
<g style="">
		<g transform="matrix(1 0 0 1 0 0)" id="uidf2b3uxq0t">
<path style="stroke: none; stroke-width: 0; stroke-dasharray:none; stroke-linecap: butt; stroke-dashoffset: 0; stroke-linejoin: miter; stroke-miterlimit: 4; fill: rgb(255,255,255); fill-rule: nonzero; opacity: 1;" transform=" translate(-199.8, -30.199999999999996)" d="M 199.8 60.3 c -1.4 0 -2.6 -1.2 -2.6 -2.6 v -55 c 0 -1.4 1.2 -2.6 2.6 -2.6 c 1.4 0 2.6 1.2 2.6 2.6 v 55 C 202.4 59.1 201.2 60.3 199.8 60.3 L 199.8 60.3 z" stroke-linecap="round"/>
</g>
</g>
</g>
		<g transform="matrix(1 0 0 1 -83.95000000000006 -132.32041515770953)" id="uidw7hrpw6pu">
<g style="">
		<g transform="matrix(1 0 0 1 0 0)" id="uid55d8afkzz">
<path style="stroke: none; stroke-width: 0; stroke-dasharray:none; stroke-linecap: butt; stroke-dashoffset: 0; stroke-linejoin: miter; stroke-miterlimit: 4; fill: rgb(255,255,255); fill-rule: nonzero; opacity: 1;" transform=" translate(-115.84999999999998, -52.62958484229049)" d="M 129.6 79.1 c -0.9 0 -1.8 -0.5 -2.3 -1.3 L 99.8 30.1 c -0.7 -1.2 -0.3 -2.8 1 -3.6 c 1.2 -0.7 2.8 -0.3 3.6 1 l 27.5 47.7 c 0.7 1.2 0.3 2.8 -1 3.6 C 130.5 79 130.1 79.1 129.6 79.1 L 129.6 79.1 z" stroke-linecap="round"/>
</g>
</g>
</g>
		<g transform="matrix(1 0 0 1 -145.35000000000002 -70.80997363788502)" id="uidf89x1170r">
<g style="">
		<g transform="matrix(1 0 0 1 0 0)" id="uidtb6kljbx6">
<path style="stroke: none; stroke-width: 0; stroke-dasharray:none; stroke-linecap: butt; stroke-dashoffset: 0; stroke-linejoin: miter; stroke-miterlimit: 4; fill: rgb(255,255,255); fill-rule: nonzero; opacity: 1;" transform=" translate(-54.45, -114.140026362115)" d="M 78.3 130.5 c -0.4 0 -0.9 -0.1 -1.3 -0.3 l -47.7 -27.5 c -1.2 -0.7 -1.7 -2.3 -1 -3.6 c 0.7 -1.2 2.3 -1.7 3.6 -1 l 47.7 27.5 c 1.2 0.7 1.7 2.3 1 3.6 C 80.1 130 79.2 130.5 78.3 130.5 L 78.3 130.5 z" stroke-linecap="round"/>
</g>
</g>
</g>
		<g transform="matrix(1 0 0 1 -167.80000000000004 13.049999999999985)" id="uidv7xr6qcrt">
<g style="">
		<g transform="matrix(1 0 0 1 0 0)" id="uidchspreqpc">
<path style="stroke: none; stroke-width: 0; stroke-dasharray:none; stroke-linecap: butt; stroke-dashoffset: 0; stroke-linejoin: miter; stroke-miterlimit: 4; fill: rgb(255,255,255); fill-rule: nonzero; opacity: 1;" transform=" translate(-32, -198)" d="M 59.5 200.6 h -55 c -1.4 0 -2.6 -1.2 -2.6 -2.6 c 0 -1.4 1.2 -2.6 2.6 -2.6 h 55 c 1.4 0 2.6 1.2 2.6 2.6 C 62.1 199.4 60.9 200.6 59.5 200.6 L 59.5 200.6 z" stroke-linecap="round"/>
</g>
</g>
</g>
		<g transform="matrix(1 0 0 1 -145.30000000000004 96.9795848422905)" id="uidlopdzt0cm">
<g style="">
		<g transform="matrix(1 0 0 1 0 0)" id="uiduipznzxjk">
<path style="stroke: none; stroke-width: 0; stroke-dasharray:none; stroke-linecap: butt; stroke-dashoffset: 0; stroke-linejoin: miter; stroke-miterlimit: 4; fill: rgb(255,255,255); fill-rule: nonzero; opacity: 1;" transform=" translate(-54.5, -281.9295848422905)" d="M 30.7 298.3 c -0.9 0 -1.8 -0.5 -2.3 -1.3 c -0.7 -1.2 -0.3 -2.8 1 -3.6 L 77 265.9 c 1.2 -0.7 2.8 -0.3 3.6 1 c 0.7 1.2 0.3 2.8 -1 3.6 L 32 297.9 C 31.6 298.2 31.1 298.3 30.7 298.3 L 30.7 298.3 z" stroke-linecap="round"/>
</g>
</g>
</g>
		<g transform="matrix(1 0 0 1 -83.85000000000004 158.37958484229048)" id="uidcjf3w5ru8">
<g style="">
		<g transform="matrix(1 0 0 1 0 0)" id="uid5kuskqi71">
<path style="stroke: none; stroke-width: 0; stroke-dasharray:none; stroke-linecap: butt; stroke-dashoffset: 0; stroke-linejoin: miter; stroke-miterlimit: 4; fill: rgb(255,255,255); fill-rule: nonzero; opacity: 1;" transform=" translate(-115.95, -343.3295848422905)" d="M 102.2 369.8 c -0.4 0 -0.9 -0.1 -1.3 -0.3 c -1.2 -0.7 -1.7 -2.3 -1 -3.6 l 27.5 -47.7 c 0.7 -1.3 2.3 -1.7 3.6 -1 c 1.2 0.7 1.7 2.3 1 3.6 l -27.5 47.7 C 103.9 369.3 103.1 369.8 102.2 369.8 L 102.2 369.8 z" stroke-linecap="round"/>
</g>
</g>
</g>
		<g transform="matrix(1 0 0 1 83.94999999999996 158.27958484229046)" id="uidzd5iu1b73">
<g style="">
		<g transform="matrix(1 0 0 1 0 0)" id="uid379egn16f">
<path style="stroke: none; stroke-width: 0; stroke-dasharray:none; stroke-linecap: butt; stroke-dashoffset: 0; stroke-linejoin: miter; stroke-miterlimit: 4; fill: rgb(255,255,255); fill-rule: nonzero; opacity: 1;" transform=" translate(-283.75, -343.2295848422905)" d="M 297.5 369.7 c -0.9 0 -1.8 -0.5 -2.3 -1.3 l -27.5 -47.7 c -0.7 -1.2 -0.3 -2.8 1 -3.6 c 1.2 -0.7 2.8 -0.3 3.6 1 l 27.5 47.7 c 0.7 1.2 0.3 2.8 -1 3.6 C 298.4 369.6 297.9 369.7 297.5 369.7 L 297.5 369.7 z" stroke-linecap="round"/>
</g>
</g>
</g>
		<g transform="matrix(1 0 0 1 145.34999999999994 96.84002636211495)" id="uid7okuyep9x">
<g style="">
		<g transform="matrix(1 0 0 1 0 0)" id="uid48lp3166q">
<path style="stroke: none; stroke-width: 0; stroke-dasharray:none; stroke-linecap: butt; stroke-dashoffset: 0; stroke-linejoin: miter; stroke-miterlimit: 4; fill: rgb(255,255,255); fill-rule: nonzero; opacity: 1;" transform=" translate(-345.15, -281.790026362115)" d="M 369 298.2 c -0.4 0 -0.9 -0.1 -1.3 -0.3 L 320 270.3 c -1.2 -0.7 -1.7 -2.3 -1 -3.6 c 0.7 -1.2 2.3 -1.7 3.6 -1 l 47.7 27.5 c 1.2 0.7 1.7 2.3 1 3.6 C 370.7 297.7 369.9 298.2 369 298.2 L 369 298.2 z" stroke-linecap="round"/>
</g>
</g>
</g>
		<g transform="matrix(1 0 0 1 167.79999999999998 12.949999999999989)" id="uid8tdk18th0">
<g style="">
		<g transform="matrix(1 0 0 1 0 0)" id="uidzst781f6g">
<path style="stroke: none; stroke-width: 0; stroke-dasharray:none; stroke-linecap: butt; stroke-dashoffset: 0; stroke-linejoin: miter; stroke-miterlimit: 4; fill: rgb(255,255,255); fill-rule: nonzero; opacity: 1;" transform=" translate(-367.6, -197.9)" d="M 395.1 200.5 h -55 c -1.4 0 -2.6 -1.2 -2.6 -2.6 c 0 -1.4 1.2 -2.6 2.6 -2.6 h 55 c 1.4 0 2.6 1.2 2.6 2.6 C 397.7 199.4 396.6 200.5 395.1 200.5 L 395.1 200.5 z" stroke-linecap="round"/>
</g>
</g>
</g>
		<g transform="matrix(1 0 0 1 145.29999999999998 -70.92041515770951)" id="uid2s6s5w57k">
<g style="">
		<g transform="matrix(1 0 0 1 0 0)" id="uidlw82g1549">
<path style="stroke: none; stroke-width: 0; stroke-dasharray:none; stroke-linecap: butt; stroke-dashoffset: 0; stroke-linejoin: miter; stroke-miterlimit: 4; fill: rgb(255,255,255); fill-rule: nonzero; opacity: 1;" transform=" translate(-345.1, -114.0295848422905)" d="M 321.3 130.4 c -0.9 0 -1.8 -0.5 -2.3 -1.3 c -0.7 -1.2 -0.3 -2.8 1 -3.6 L 367.6 98 c 1.2 -0.7 2.8 -0.3 3.6 1 c 0.7 1.2 0.3 2.8 -1 3.6 L 322.6 130 C 322.2 130.3 321.7 130.4 321.3 130.4 L 321.3 130.4 z" stroke-linecap="round"/>
</g>
</g>
</g>
		<g transform="matrix(1 0 0 1 83.84999999999988 -132.32041515770953)" id="uidmmkoowtgs">
<g style="">
		<g transform="matrix(1 0 0 1 0 0)" id="uiduqd52tgyq">
<path style="stroke: none; stroke-width: 0; stroke-dasharray:none; stroke-linecap: butt; stroke-dashoffset: 0; stroke-linejoin: miter; stroke-miterlimit: 4; fill: rgb(255,255,255); fill-rule: nonzero; opacity: 1;" transform=" translate(-283.6499999999999, -52.62958484229049)" d="M 269.9 79.1 c -0.4 0 -0.9 -0.1 -1.3 -0.3 c -1.2 -0.7 -1.7 -2.3 -1 -3.6 l 27.5 -47.7 c 0.7 -1.3 2.3 -1.7 3.6 -1 c 1.2 0.7 1.7 2.3 1 3.6 l -27.5 47.7 C 271.7 78.6 270.8 79.1 269.9 79.1 L 269.9 79.1 z" stroke-linecap="round"/>
</g>
</g>
</g>
		<g transform="matrix(1 0 0 1 -2.842e-14 -154.75000000000003)" id="uidodm4hyawn">
<g style="">
		<g transform="matrix(1 0 0 1 0 0)" id="uidzjqkkdaad">
<path style="stroke: none; stroke-width: 0; stroke-dasharray:none; stroke-linecap: butt; stroke-dashoffset: 0; stroke-linejoin: miter; stroke-miterlimit: 4; fill: rgb(255,255,255); fill-rule: nonzero; opacity: 1;" transform=" translate(-199.8, -30.199999999999996)" d="M 199.8 60.3 c -1.4 0 -2.6 -1.2 -2.6 -2.6 v -55 c 0 -1.4 1.2 -2.6 2.6 -2.6 c 1.4 0 2.6 1.2 2.6 2.6 v 55 C 202.4 59.1 201.2 60.3 199.8 60.3 L 199.8 60.3 z" stroke-linecap="round"/>
</g>
</g>
</g>
</g>
</g>
</g>
</g>
</g>
<g transform="matrix(1 0 0 1 125 63.14930930943536)" style="" id="uidyc06m9qkj">
		
<g xml:space="preserve" style="stroke: rgb(124,140,2); stroke-width: 0; stroke-dasharray:none; stroke-linecap: butt; stroke-dashoffset: 0; stroke-linejoin: miter; stroke-miterlimit: 4; fill: rgb(67,12,155); fill-rule: nonzero; opacity: 1; white-space: pre;"><path d="M-26.07 2.92L-26.07 2.92L-26.07-8.19L-31.91 6.65L-32.41 6.65L-38.04-7.71L-38.04 2.92Q-38.04 4.45-37.96 5.18L-37.96 5.18L-36.16 5.42Q-36.05 5.76-36.16 6.11L-36.16 6.11Q-37.83 6.07-38.52 6.07L-38.52 6.07Q-39.68 6.07-40.86 6.13L-40.86 6.13Q-40.94 5.71-40.86 5.42L-40.86 5.42L-39.10 5.22L-39.10-6.16Q-39.10-7.69-39.18-8.43L-39.18-8.43L-40.78-8.66Q-40.90-8.99-40.78-9.32L-40.78-9.32L-36.53-9.32L-31.68 3.41L-26.71-9.32Q-26.26-9.30-25.36-9.30L-25.36-9.30Q-25.16-9.30-22.32-9.35L-22.32-9.35Q-22.20-9.01-22.32-8.66L-22.32-8.66L-23.92-8.43Q-24.00-7.69-24.00-6.16L-24.00-6.16L-24.00 5.22L-22.44 5.42Q-22.36 5.71-22.44 6.13L-22.44 6.13Q-23.65 6.07-25.08 6.07L-25.08 6.07Q-26.13 6.07-27.75 6.11L-27.75 6.11Q-27.87 5.63-27.75 5.42L-27.75 5.42L-26.15 5.18Q-26.07 4.45-26.07 2.92Z"/><path d="M-20.95 0.93L-20.95 0.93Q-20.95-0.23-20.61-1.24Q-20.27-2.26-19.63-3.01Q-18.99-3.77-18.10-4.20Q-17.20-4.64-16.08-4.64L-16.08-4.64Q-14.97-4.64-14.06-4.20Q-13.16-3.77-12.51-3.01Q-11.86-2.26-11.51-1.24Q-11.16-0.23-11.16 0.93L-11.16 0.93Q-11.16 2.13-11.52 3.13Q-11.88 4.14-12.53 4.88Q-13.18 5.63-14.08 6.04Q-14.99 6.46-16.08 6.46L-16.08 6.46Q-17.22 6.46-18.12 6.05Q-19.01 5.65-19.64 4.91Q-20.27 4.18-20.61 3.16Q-20.95 2.15-20.95 0.93ZM-18.12-2.63L-18.12-2.63Q-18.96-1.45-18.96 0.93L-18.96 0.93Q-18.96 2.11-18.73 3.00Q-18.51 3.89-18.12 4.48Q-17.74 5.07-17.22 5.36Q-16.69 5.65-16.08 5.65L-16.08 5.65Q-15.48 5.65-14.93 5.36Q-14.39 5.07-14.01 4.48Q-13.62 3.89-13.39 3.00Q-13.16 2.11-13.16 0.93L-13.16 0.93Q-13.16-0.25-13.39-1.15Q-13.62-2.05-14.02-2.64Q-14.41-3.23-14.94-3.53Q-15.48-3.83-16.08-3.83L-16.08-3.83Q-17.27-3.83-18.12-2.63Z"/><path d="M-1.71 2.71L-1.71-0.83Q-1.71-2.32-2.11-2.92Q-2.50-3.52-3.43-3.52L-3.43-3.52Q-4.86-3.52-6.31-1.37L-6.31-1.37L-6.31 5.09L-4.75 5.38Q-4.67 5.69-4.75 6.15L-4.75 6.15Q-5.96 6.09-7.24 6.09L-7.24 6.09Q-8.13 6.09-9.75 6.13L-9.75 6.13Q-9.87 5.76-9.75 5.38L-9.75 5.38L-8.23 5.16Q-8.15 4.10-8.15 2.71L-8.15 2.71L-8.15-2.59Q-8.15-2.97-8.21-3.30L-8.21-3.30L-9.73-3.50Q-9.81-3.79-9.73-4.23L-9.73-4.23Q-8.40-4.33-6.41-4.64L-6.41-4.64Q-6.23-4.44-6.22-4.25L-6.22-4.25Q-6.31-3.75-6.31-2.53L-6.31-2.53Q-4.78-4.64-2.87-4.64L-2.87-4.64Q0.13-4.64 0.13-1.80L0.13-1.80L0.13 5.09L1.69 5.38Q1.77 5.69 1.69 6.15L1.69 6.15Q0.47 6.09-0.80 6.09L-0.80 6.09Q-1.69 6.09-3.32 6.13L-3.32 6.13Q-3.43 5.76-3.32 5.38L-3.32 5.38L-1.79 5.16Q-1.71 4.10-1.71 2.71L-1.71 2.71Z"/><path d="M2.81 0.93L2.81 0.93Q2.81-0.23 3.15-1.24Q3.49-2.26 4.13-3.01Q4.77-3.77 5.66-4.20Q6.56-4.64 7.68-4.64L7.68-4.64Q8.79-4.64 9.70-4.20Q10.60-3.77 11.25-3.01Q11.90-2.26 12.25-1.24Q12.60-0.23 12.60 0.93L12.60 0.93Q12.60 2.13 12.24 3.13Q11.88 4.14 11.23 4.88Q10.58 5.63 9.68 6.04Q8.77 6.46 7.68 6.46L7.68 6.46Q6.54 6.46 5.65 6.05Q4.75 5.65 4.12 4.91Q3.49 4.18 3.15 3.16Q2.81 2.15 2.81 0.93ZM5.64-2.63L5.64-2.63Q4.80-1.45 4.80 0.93L4.80 0.93Q4.80 2.11 5.03 3.00Q5.25 3.89 5.64 4.48Q6.02 5.07 6.54 5.36Q7.07 5.65 7.68 5.65L7.68 5.65Q8.28 5.65 8.83 5.36Q9.37 5.07 9.75 4.48Q10.14 3.89 10.37 3.00Q10.60 2.11 10.60 0.93L10.60 0.93Q10.60-0.25 10.37-1.15Q10.14-2.05 9.74-2.64Q9.35-3.23 8.82-3.53Q8.28-3.83 7.68-3.83L7.68-3.83Q6.49-3.83 5.64-2.63Z"/><path d="M21.35 5.18L17.43 0.51L21.47-3.40L20.19-3.55Q20.12-3.86 20.19-4.31L20.19-4.31Q21.26-4.23 22.18-4.23L22.18-4.23Q22.94-4.23 24.20-4.29L24.20-4.29Q24.31-3.94 24.20-3.55L24.20-3.55L22.67-3.28L19.25-0.07L23.46 4.97L24.97 5.36Q25.05 5.67 24.97 6.13L24.97 6.13Q23.75 6.07 22.53 6.07L22.53 6.07Q21.70 6.07 20.08 6.11L20.08 6.11Q19.96 5.73 20.08 5.36L20.08 5.36L21.35 5.18ZM17.22-6.18L17.22-6.18L17.22 5.09L18.78 5.38Q18.86 5.69 18.78 6.15L18.78 6.15Q17.56 6.09 16.31 6.09L16.31 6.09Q15.42 6.09 13.79 6.13L13.79 6.13Q13.68 5.76 13.79 5.38L13.79 5.38L15.32 5.16Q15.40 4.10 15.40 2.71L15.40 2.71L15.40-8.37L13.81-8.56Q13.74-8.85 13.81-9.30L13.81-9.30Q15.11-9.39 17.12-9.70L17.12-9.70Q17.29-9.51 17.31-9.32L17.31-9.32Q17.22-8.81 17.22-6.18Z"/><path d="M27.60 3.50L27.60 3.50Q27.60 4.51 27.97 4.92Q28.33 5.34 29.13 5.34L29.13 5.34Q29.71 5.34 30.41 4.98Q31.12 4.62 31.72 3.95L31.72 3.95L31.72 0.93Q29.72 1.05 28.66 1.64Q27.60 2.23 27.60 3.50ZM31.72 0.23L31.72 0.23L31.72-0.75Q31.72-2.39 31.34-3.14Q30.96-3.88 30.09-3.88L30.09-3.88Q29.20-3.88 28.66-3.31Q28.12-2.74 27.93-1.37L27.93-1.37Q27.31-1.23 27.02-1.23L27.02-1.23Q26.26-1.23 26.13-1.78L26.13-1.78Q26.13-3.09 27.27-3.86Q28.41-4.64 30.11-4.64L30.11-4.64Q31.99-4.64 32.77-3.87Q33.55-3.11 33.55-1.14L33.55-1.14L33.55 4.31Q33.55 4.80 33.61 5.15L33.61 5.15L35.14 5.34Q35.22 5.63 35.14 6.07L35.14 6.07Q33.77 6.13 32.22 6.34L32.22 6.34Q32.06 6.19 32.03 5.96L32.03 5.96L31.93 4.62Q30.32 6.46 28.35 6.46L28.35 6.46Q27.13 6.46 26.45 5.76Q25.76 5.07 25.76 3.89L25.76 3.89Q25.76 2.11 27.38 1.20Q28.99 0.29 31.72 0.23Z"/><path d="M39.33-1.12L39.33-1.12L39.33 5.09L40.90 5.38Q40.92 5.47 40.93 5.55Q40.94 5.63 40.94 5.73L40.94 5.73Q40.94 5.82 40.93 5.93Q40.92 6.03 40.90 6.15L40.90 6.15Q39.68 6.09 38.41 6.09L38.41 6.09Q37.96 6.09 37.33 6.10Q36.70 6.11 35.89 6.13L35.89 6.13Q35.83 5.96 35.83 5.76L35.83 5.76Q35.83 5.59 35.89 5.38L35.89 5.38L37.42 5.16Q37.46 4.62 37.48 4.01Q37.50 3.41 37.50 2.71L37.50 2.71L37.50-1.41Q37.50-2.68 37.44-3.30L37.44-3.30L35.91-3.50Q35.87-3.59 35.87-3.83L35.87-3.83Q35.87-3.92 35.87-4.02Q35.87-4.12 35.91-4.23L35.91-4.23Q37.23-4.31 39.24-4.64L39.24-4.64Q39.41-4.44 39.43-4.25L39.43-4.25Q39.33-3.71 39.33-1.12ZM36.51-8.02L36.51-8.02Q36.47-8.12 36.47-8.22Q36.47-8.33 36.47-8.43L36.47-8.43Q36.47-8.95 36.91-9.27Q37.34-9.59 37.98-9.59L37.98-9.59Q38.58-9.59 38.96-9.23Q39.33-8.87 39.33-8.25L39.33-8.25Q39.33-7.75 38.90-7.44Q38.46-7.13 37.79-7.13L37.79-7.13Q37.32-7.13 36.97-7.36Q36.61-7.60 36.51-8.02Z"/></g></g>
<g transform="matrix(1.160805454411009 0 0 1 125 82.40582191780821)" style="" id="uidt1xab8anj">
		
<g xml:space="preserve" style="stroke: rgb(6,29,104); stroke-width: 0; stroke-dasharray:none; stroke-linecap: butt; stroke-dashoffset: 0; stroke-linejoin: miter; stroke-miterlimit: 4; fill: rgb(17,7,109); fill-rule: nonzero; opacity: 1; white-space: pre;"><path d="M-25.80 3.96Q-25.92 3.96-25.97 3.88Q-26.03 3.80-26.03 3.69L-26.03 3.69Q-26.02 3.50-25.95 3.46Q-25.89 3.43-25.72 3.43L-25.72 3.43Q-25.35 3.43-25.18 3.30Q-25.02 3.16-24.98 2.98Q-24.94 2.80-24.93 2.46L-24.93 2.46L-24.90-2.50Q-24.90-2.87-24.98-3.07Q-25.07-3.26-25.24-3.35Q-25.42-3.44-25.74-3.50L-25.74-3.50Q-25.95-3.54-26.00-3.57Q-26.05-3.61-26.05-3.79L-26.05-3.79Q-26.05-3.94-25.97-3.99Q-25.89-4.04-25.72-4.04L-25.72-4.04Q-24.94-4.04-24.49-3.93Q-24.04-3.82-23.70-3.55Q-23.35-3.27-22.94-2.71L-22.94-2.71L-19.51 1.79L-19.48 1.79L-19.50-2.50Q-19.51-2.84-19.55-3.02Q-19.59-3.20-19.76-3.33Q-19.93-3.46-20.29-3.46L-20.29-3.46L-20.36-3.46Q-20.49-3.46-20.55-3.50Q-20.60-3.55-20.61-3.72L-20.61-3.72Q-20.61-3.84-20.55-3.92Q-20.49-4.00-20.39-4.00L-20.39-4.00Q-19.59-3.96-19.19-3.96L-19.19-3.96Q-18.95-3.96-18.28-3.99L-18.28-3.99L-18.01-4.00Q-17.90-4.00-17.85-3.92Q-17.79-3.84-17.79-3.72L-17.79-3.72Q-17.80-3.54-17.86-3.50Q-17.93-3.46-18.10-3.46L-18.10-3.46Q-18.46-3.46-18.63-3.33Q-18.80-3.20-18.84-3.02Q-18.88-2.84-18.89-2.50L-18.89-2.50L-18.91 3.80Q-18.93 3.96-19.23 3.96L-19.23 3.96Q-19.46 3.96-19.59 3.80L-19.59 3.80L-24.30-2.50L-24.34-2.50L-24.32 2.46Q-24.30 2.80-24.27 2.98Q-24.23 3.16-24.06 3.30Q-23.89 3.43-23.53 3.43L-23.53 3.43L-23.45 3.43Q-23.33 3.43-23.27 3.47Q-23.22 3.51-23.20 3.69L-23.20 3.69Q-23.20 3.80-23.26 3.88Q-23.32 3.96-23.43 3.96L-23.43 3.96Q-24.23 3.93-24.64 3.93L-24.64 3.93Q-24.89 3.93-25.52 3.95L-25.52 3.95L-25.80 3.96Z"/><path d="M-14.65 4.08Q-15.50 4.08-16.16 3.67Q-16.83 3.26-17.20 2.60Q-17.56 1.93-17.56 1.18L-17.56 1.18Q-17.56 0.24-17.13-0.45Q-16.69-1.15-16.01-1.52Q-15.34-1.89-14.65-1.89L-14.65-1.89Q-13.80-1.89-13.14-1.48Q-12.48-1.07-12.11-0.40Q-11.74 0.26-11.74 1.01L-11.74 1.01Q-11.74 1.95-12.18 2.65Q-12.63 3.34-13.30 3.71Q-13.98 4.08-14.65 4.08L-14.65 4.08ZM-14.65 3.61Q-13.80 3.61-13.41 2.89Q-13.01 2.16-13.01 1.01L-13.01 1.01Q-13.01-0.06-13.42-0.74Q-13.83-1.42-14.65-1.42L-14.65-1.42Q-15.51-1.42-15.90-0.71Q-16.29 0.00-16.29 1.15L-16.29 1.15Q-16.29 2.23-15.89 2.92Q-15.49 3.61-14.65 3.61L-14.65 3.61Z"/><path d=""/><path d="M-7.69 3.96Q-7.80 3.96-7.86 3.88Q-7.91 3.80-7.91 3.69L-7.91 3.69Q-7.90 3.50-7.83 3.46Q-7.76 3.43-7.60 3.43L-7.60 3.43Q-7.24 3.43-7.06 3.30Q-6.89 3.16-6.84 2.98Q-6.79 2.79-6.78 2.46L-6.78 2.46L-6.78-2.50Q-6.79-2.82-6.84-3.01Q-6.89-3.20-7.06-3.33Q-7.24-3.46-7.60-3.46L-7.60-3.46L-7.68-3.46Q-7.79-3.46-7.84-3.50Q-7.90-3.55-7.91-3.72L-7.91-3.72Q-7.91-3.84-7.86-3.92Q-7.80-4.00-7.69-4.00L-7.69-4.00Q-6.88-3.96-6.20-3.96L-6.20-3.96Q-5.45-3.96-4.64-4.00L-4.64-4.00Q-4.53-4.00-4.47-3.92Q-4.41-3.84-4.41-3.72L-4.41-3.72Q-4.43-3.54-4.49-3.50Q-4.56-3.46-4.74-3.46L-4.74-3.46Q-5.10-3.46-5.28-3.33Q-5.45-3.20-5.49-3.00Q-5.54-2.81-5.55-2.50L-5.55-2.50L-5.55 2.46Q-5.54 2.78-5.49 2.97Q-5.45 3.16-5.28 3.30Q-5.10 3.43-4.74 3.43L-4.74 3.43L-4.66 3.43Q-4.54 3.43-4.48 3.47Q-4.43 3.51-4.41 3.69L-4.41 3.69Q-4.41 3.80-4.47 3.88Q-4.53 3.96-4.64 3.96L-4.64 3.96Q-5.44 3.93-6.19 3.93L-6.19 3.93Q-6.88 3.93-7.69 3.96L-7.69 3.96Z"/><path d="M-1.46 4.14Q-2.08 4.14-2.51 3.69Q-2.95 3.24-2.95 2.40L-2.95 2.40L-2.95-1.27L-3.68-1.25Q-3.75-1.25-3.80-1.32Q-3.85-1.39-3.85-1.47L-3.85-1.47Q-3.85-1.59-3.81-1.67Q-3.76-1.75-3.68-1.76L-3.68-1.76Q-3.24-1.85-2.99-2.04Q-2.75-2.24-2.64-2.47Q-2.53-2.70-2.36-3.17L-2.36-3.17Q-2.30-3.34-2.09-3.34L-2.09-3.34Q-2.00-3.34-1.91-3.29Q-1.83-3.25-1.83-3.16L-1.83-3.16L-1.91-1.74L-0.45-1.82L-0.43-1.82Q-0.26-1.82-0.26-1.59L-0.26-1.59Q-0.26-1.45-0.31-1.33Q-0.35-1.21-0.41-1.21L-0.41-1.21L-1.81-1.25L-1.81 2.55Q-1.81 2.96-1.64 3.24Q-1.48 3.51-1.09 3.51L-1.09 3.51Q-0.70 3.51-0.40 3.38L-0.40 3.38Q-0.24 3.31-0.20 3.31L-0.20 3.31Q-0.11 3.31-0.06 3.38Q-0.01 3.45 0.04 3.56L0.04 3.56Q0.05 3.59 0.05 3.63L0.05 3.63Q0.05 3.68-0.03 3.74L-0.03 3.74Q-0.39 3.98-0.71 4.06Q-1.03 4.14-1.46 4.14L-1.46 4.14Z"/><path d="M2.68 4.08Q1.93 4.08 1.46 3.65Q1.00 3.23 1.00 2.59L1.00 2.59Q1.00 1.80 1.53 1.41Q2.05 1.01 2.78 0.90Q3.50 0.78 4.65 0.71L4.65 0.71L4.65-0.27Q4.65-0.89 4.34-1.20Q4.04-1.52 3.36-1.52L3.36-1.52Q2.98-1.52 2.69-1.29Q2.40-1.05 2.40-0.65L2.40-0.65Q2.40-0.45 2.49-0.32Q2.59-0.19 2.69-0.10Q2.80-0.01 2.80 0.00L2.80 0.00Q2.80 0.08 2.64 0.20Q2.49 0.31 2.26 0.31L2.26 0.31Q1.89 0.31 1.67 0.04Q1.45-0.24 1.45-0.61L1.45-0.61Q1.45-1.26 2.03-1.57Q2.61-1.89 3.44-1.89L3.44-1.89Q4.46-1.89 5.11-1.50Q5.75-1.11 5.75-0.06L5.75-0.06L5.75 2.85Q5.76 3.11 5.91 3.35Q6.06 3.59 6.40 3.59L6.40 3.59Q6.50 3.59 6.54 3.63Q6.59 3.66 6.59 3.79L6.59 3.79Q6.59 3.94 6.36 4.01Q6.13 4.08 5.90 4.08L5.90 4.08Q5.43 4.08 5.06 3.80Q4.70 3.53 4.65 3.06L4.65 3.06Q4.39 3.55 3.84 3.81Q3.30 4.08 2.68 4.08L2.68 4.08ZM3.08 3.40Q3.50 3.40 3.86 3.19Q4.23 2.98 4.44 2.61Q4.65 2.24 4.65 1.79L4.65 1.79L4.65 1.08Q3.34 1.18 2.80 1.50Q2.26 1.83 2.26 2.55L2.26 2.55Q2.26 3.40 3.08 3.40L3.08 3.40Z"/><path d="M7.33 3.96Q7.24 3.96 7.18 3.89Q7.13 3.81 7.13 3.71L7.13 3.71Q7.14 3.55 7.19 3.52Q7.25 3.49 7.41 3.49L7.41 3.49Q7.74 3.49 7.88 3.38Q8.01 3.26 8.04 3.11Q8.06 2.96 8.06 2.64L8.06 2.64L8.06-3.46Q8.06-3.79 8.04-3.94Q8.03-4.09 7.89-4.20Q7.75-4.31 7.43-4.31L7.43-4.31Q7.28-4.31 7.20-4.36Q7.13-4.40 7.13-4.56L7.13-4.56Q7.13-4.64 7.18-4.71Q7.23-4.77 7.33-4.79L7.33-4.79Q8.11-4.90 8.68-5.11L8.68-5.11Q8.85-5.17 8.96-5.19L8.96-5.19L9.00-5.19Q9.20-5.19 9.20-4.95L9.20-4.95L9.20 2.64Q9.20 2.96 9.23 3.11Q9.25 3.26 9.39 3.38Q9.53 3.49 9.85 3.49L9.85 3.49L9.93 3.49Q10.03 3.49 10.08 3.53Q10.13 3.56 10.14 3.71L10.14 3.71Q10.14 3.81 10.09 3.89Q10.04 3.96 9.94 3.96L9.94 3.96Q9.21 3.93 8.63 3.93L8.63 3.93Q8.06 3.93 7.33 3.96L7.33 3.96Z"/><path d="M11.03 3.96Q10.94 3.96 10.88 3.89Q10.83 3.81 10.83 3.71L10.83 3.71Q10.84 3.55 10.90 3.52Q10.96 3.49 11.13 3.49L11.13 3.49Q11.45 3.49 11.59 3.38Q11.73 3.26 11.75 3.11Q11.76 2.96 11.76 2.64L11.76 2.64L11.76-0.22Q11.76-0.55 11.75-0.70Q11.73-0.85 11.59-0.96Q11.45-1.07 11.13-1.07L11.13-1.07Q10.98-1.07 10.90-1.12Q10.83-1.16 10.83-1.32L10.83-1.32Q10.83-1.40 10.88-1.47Q10.93-1.54 11.03-1.55L11.03-1.55Q11.81-1.66 12.38-1.87L12.38-1.87Q12.55-1.94 12.66-1.95L12.66-1.95L12.70-1.95Q12.90-1.95 12.90-1.71L12.90-1.71L12.90 2.64Q12.90 2.96 12.93 3.11Q12.95 3.26 13.09 3.38Q13.23 3.49 13.55 3.49L13.55 3.49L13.63 3.49Q13.73 3.49 13.78 3.53Q13.83 3.56 13.84 3.71L13.84 3.71Q13.84 3.81 13.79 3.89Q13.74 3.96 13.64 3.96L13.64 3.96Q12.91 3.93 12.33 3.93L12.33 3.93Q11.76 3.93 11.03 3.96L11.03 3.96ZM12.26-3.34Q11.91-3.34 11.68-3.55Q11.44-3.77 11.44-4.10L11.44-4.10Q11.44-4.39 11.73-4.61Q12.01-4.84 12.38-4.84L12.38-4.84Q12.69-4.84 12.89-4.62Q13.09-4.40 13.09-4.06L13.09-4.06Q13.09-3.76 12.85-3.55Q12.61-3.34 12.26-3.34L12.26-3.34Z"/><path d="M17.26 4.08Q15.99 4.08 15.26 3.26Q14.54 2.45 14.54 1.09L14.54 1.09Q14.56 0.24 14.96-0.43Q15.35-1.10 16.01-1.48Q16.68-1.86 17.48-1.89L17.48-1.89Q18.28-1.89 18.86-1.59Q19.44-1.29 19.44-0.59L19.44-0.59Q19.44-0.20 19.21 0.10Q18.98 0.39 18.59 0.39L18.59 0.39Q18.35 0.39 18.18 0.26Q18.01 0.14 18.01 0.05L18.01 0.05Q18.01 0.04 18.13-0.06Q18.24-0.16 18.33-0.30Q18.43-0.45 18.43-0.64L18.43-0.64Q18.43-1.02 18.15-1.22Q17.86-1.42 17.46-1.42L17.46-1.42Q16.50-1.42 16.16-0.72Q15.81-0.01 15.81 1.05L15.81 1.05Q15.81 2.10 16.29 2.78Q16.76 3.45 17.55 3.45L17.55 3.45Q18.09 3.45 18.47 3.22Q18.85 2.99 19.16 2.51L19.16 2.51Q19.20 2.45 19.29 2.45L19.29 2.45Q19.35 2.45 19.43 2.49L19.43 2.49Q19.49 2.51 19.53 2.58Q19.56 2.64 19.56 2.70L19.56 2.70Q19.56 2.74 19.53 2.80L19.53 2.80Q19.11 3.39 18.50 3.73Q17.89 4.08 17.26 4.08L17.26 4.08Z"/><path d="M22.69 4.08Q21.69 4.08 21.07 3.73Q20.44 3.38 20.44 2.74L20.44 2.74Q20.44 2.38 20.66 2.15Q20.88 1.93 21.23 1.93L21.23 1.93Q21.43 1.93 21.58 2.04Q21.74 2.15 21.74 2.21L21.74 2.21Q21.74 2.23 21.60 2.38Q21.45 2.53 21.45 2.80L21.45 2.80Q21.45 3.18 21.80 3.40Q22.14 3.61 22.79 3.61L22.79 3.61Q23.38 3.61 23.71 3.36Q24.04 3.10 24.04 2.64L24.04 2.64Q24.04 2.33 23.85 2.13Q23.67 1.93 23.38 1.81Q23.10 1.70 22.60 1.55L22.60 1.55Q21.99 1.38 21.60 1.20Q21.22 1.03 20.94 0.68Q20.67 0.33 20.67-0.24L20.67-0.24Q20.67-0.76 20.99-1.14Q21.32-1.51 21.83-1.70Q22.35-1.89 22.93-1.89L22.93-1.89Q23.67-1.89 24.21-1.57Q24.75-1.26 24.75-0.70L24.75-0.70Q24.75-0.36 24.55-0.12Q24.34 0.11 24.00 0.11L24.00 0.11Q23.80 0.11 23.65 0.00Q23.49-0.11 23.49-0.17L23.49-0.17Q23.49-0.19 23.59-0.27Q23.69-0.36 23.77-0.48Q23.85-0.60 23.85-0.76L23.85-0.76Q23.83-1.10 23.52-1.29Q23.20-1.47 22.78-1.47L22.78-1.47Q22.30-1.47 21.95-1.25Q21.59-1.04 21.59-0.65L21.59-0.65Q21.59-0.30 21.74-0.09Q21.89 0.11 22.19 0.24Q22.49 0.36 23.14 0.58L23.14 0.58Q23.80 0.79 24.18 0.97Q24.55 1.15 24.77 1.46Q24.99 1.76 24.99 2.26L24.99 2.26Q24.99 2.78 24.69 3.20Q24.39 3.61 23.87 3.85Q23.34 4.08 22.69 4.08L22.69 4.08Z"/></g></g>
</svg>